<?xml version="1.0" encoding="UTF-8"?>
<!DOCTYPE svg PUBLIC "-//W3C//DTD SVG 1.1//EN" "http://www.w3.org/Graphics/SVG/1.1/DTD/svg11.dtd">
<svg xmlns="http://www.w3.org/2000/svg" version="1.1" width="346px" height="307px" style="shape-rendering:geometricPrecision; text-rendering:geometricPrecision; image-rendering:optimizeQuality; fill-rule:evenodd; clip-rule:evenodd" xmlns:xlink="http://www.w3.org/1999/xlink">
<g><path style="opacity:0.995" fill="#020605" d="M 224.5,20.5 C 225.167,20.5 225.5,20.8333 225.5,21.5C 235.492,27.4967 245.492,33.4967 255.5,39.5C 257.193,42.1897 259.527,44.1897 262.5,45.5C 287.717,68.598 302.384,97.2646 306.5,131.5C 305.765,140.18 305.099,149.013 304.5,158C 304.528,159.07 304.861,159.903 305.5,160.5C 304.897,164.273 304.23,167.939 303.5,171.5C 300.685,179.38 297.852,187.38 295,195.5C 291.807,201.886 288.64,208.22 285.5,214.5C 284.603,215.598 283.77,215.598 283,214.5C 282.495,216.518 281.995,218.518 281.5,220.5C 278.885,222.379 276.719,224.712 275,227.5C 274.308,228.437 274.475,229.103 275.5,229.5C 275.167,230.5 274.5,231.167 273.5,231.5C 269.03,234.425 264.697,238.258 260.5,243C 257.01,245.911 253.344,248.578 249.5,251C 248.262,251.69 248.262,252.19 249.5,252.5C 248.486,253.674 247.153,254.34 245.5,254.5C 232.767,261.739 219.434,267.406 205.5,271.5C 190.42,275.142 175.087,276.142 159.5,274.5C 148.952,272.55 138.452,269.884 128,266.5C 127.235,266.57 126.735,266.903 126.5,267.5C 125.833,267.5 125.5,267.167 125.5,266.5C 121.419,263.126 116.753,260.793 111.5,259.5C 111.027,258.094 110.027,257.427 108.5,257.5C 107.508,257.672 106.842,257.338 106.5,256.5C 95.8716,248.867 85.8716,240.534 76.5,231.5C 75.8333,231.5 75.5,231.167 75.5,230.5C 39.9308,184.738 34.0974,135.405 58,82.5C 91.5207,26.4096 140.687,4.24296 205.5,16C 211.271,17.5347 216.937,19.368 222.5,21.5C 223.416,21.4573 224.083,21.1239 224.5,20.5 Z"/></g>
<g><path style="opacity:0.996" fill="#046559" d="M 162.5,21.5 C 167.194,20.8955 171.528,21.7289 175.5,24C 179.558,28.6148 182.725,33.7815 185,39.5C 187.667,42.1667 190.333,42.1667 193,39.5C 193.167,38.5 193.333,37.5 193.5,36.5C 191.845,31.6915 189.512,27.1915 186.5,23C 194.441,22.6545 202.108,23.9879 209.5,27C 214.524,33.2525 217.024,40.4191 217,48.5C 219.178,52.0655 221.844,52.3988 225,49.5C 225.791,43.7035 225.291,38.0368 223.5,32.5C 230.793,35.2312 237.627,38.8978 244,43.5C 245.829,50.4495 245.996,57.4495 244.5,64.5C 244.818,70.5777 247.485,71.911 252.5,68.5C 253.833,63.4997 255.167,58.4997 256.5,53.5C 261.851,58.0176 266.685,63.0176 271,68.5C 271.61,72.2364 271.277,75.9031 270,79.5C 268.536,83.9153 266.703,88.0819 264.5,92C 265.375,97.7644 268.208,98.931 273,95.5C 275.171,91.1578 277.338,86.8244 279.5,82.5C 284.026,88.7196 287.359,95.5529 289.5,103C 286.913,110.584 282.413,116.751 276,121.5C 274.833,127 277,129.167 282.5,128C 286.667,125.167 290.167,121.667 293,117.5C 295.633,125.233 296.633,133.233 296,141.5C 291.487,147.507 285.654,151.674 278.5,154C 276.604,155.808 276.104,157.975 277,160.5C 277.956,161.894 279.289,162.561 281,162.5C 286.072,160.964 290.739,158.63 295,155.5C 294.995,161.205 294.329,166.872 293,172.5C 292.313,178.189 289.147,181.689 283.5,183C 278.9,184.317 274.234,185.317 269.5,186C 265.98,188.237 265.647,190.904 268.5,194C 274.234,194.378 279.901,193.878 285.5,192.5C 282.769,199.793 279.102,206.627 274.5,213C 265.835,214.399 257.169,214.899 248.5,214.5C 247.22,216.702 247.22,218.868 248.5,221C 253.987,222.878 259.653,224.044 265.5,224.5C 260.649,230.184 255.316,235.351 249.5,240C 241.32,241.122 233.987,239.122 227.5,234C 222.824,233.014 220.658,234.848 221,239.5C 224.949,243.893 229.782,246.893 235.5,248.5C 228.532,253.54 220.865,256.707 212.5,258C 209.339,256.587 206.339,254.92 203.5,253C 200.58,249.573 197.247,246.739 193.5,244.5C 189.746,245.852 188.579,248.518 190,252.5C 193.201,256.036 196.701,259.203 200.5,262C 183.163,270.954 171.33,266.454 165,248.5C 161.165,244.241 157.999,244.574 155.5,249.5C 156.901,254.802 159.235,259.635 162.5,264C 153.693,264.785 145.526,262.952 138,258.5C 134.761,252.213 132.761,245.546 132,238.5C 129.679,235.083 127.012,234.75 124,237.5C 123.622,243.234 124.122,248.901 125.5,254.5C 117.888,252.278 111.055,248.611 105,243.5C 103.214,236.212 103.048,228.878 104.5,221.5C 103.505,216.247 100.838,215.247 96.5,218.5C 95.3494,223.579 94.016,228.579 92.5,233.5C 87.1487,228.982 82.3154,223.982 78,218.5C 77.1412,210.407 79.1412,203.073 84,196.5C 84.2635,190.755 81.7635,188.922 76.5,191C 73.5094,195.148 71.1761,199.648 69.5,204.5C 65.2978,198.754 62.1311,192.421 60,185.5C 59.7257,182.351 60.3923,179.351 62,176.5C 66.054,171.953 69.8873,167.286 73.5,162.5C 72.1484,158.746 69.4817,157.579 65.5,159C 61.9636,162.201 58.7969,165.701 56,169.5C 53.7839,161.653 52.7839,153.653 53,145.5C 57.5476,139.481 63.3809,135.315 70.5,133C 72.3959,131.192 72.8959,129.025 72,126.5C 71.044,125.106 69.7106,124.439 68,124.5C 62.7406,125.416 58.2406,127.75 54.5,131.5C 53.6904,124.703 54.5237,118.036 57,111.5C 57.3459,109.152 58.5125,107.319 60.5,106C 66.453,102.928 72.7864,101.262 79.5,101C 83.5,98.3333 83.5,95.6667 79.5,93C 74.06,92.3637 68.7267,92.8637 63.5,94.5C 65.7224,86.8883 69.3891,80.055 74.5,74C 81.6046,72.1827 88.7713,72.016 96,73.5C 101.19,73.23 102.69,70.73 100.5,66C 95.0133,64.1222 89.3467,62.9555 83.5,62.5C 88.3507,56.8157 93.684,51.649 99.5,47C 107.358,46.1027 114.358,48.1027 120.5,53C 126.37,54.2934 128.703,52.1267 127.5,46.5C 123.127,43.3136 118.46,40.647 113.5,38.5C 119.72,33.9739 126.553,30.6405 134,28.5C 141.584,31.0875 147.751,35.5875 152.5,42C 158.502,42.9931 160.668,40.4931 159,34.5C 155.625,30.9564 152.125,27.6231 148.5,24.5C 153.299,23.4903 157.966,22.4903 162.5,21.5 Z"/></g>
<g><path style="opacity:0.082" fill="#0d4c46" d="M 225.5,21.5 C 236.835,25.4914 246.835,31.4914 255.5,39.5C 245.492,33.4967 235.492,27.4967 225.5,21.5 Z"/></g>
<g><path style="opacity:0.149" fill="#0c463b" d="M 255.5,39.5 C 258.447,40.7805 260.781,42.7805 262.5,45.5C 259.527,44.1897 257.193,42.1897 255.5,39.5 Z"/></g>
<g><path style="opacity:0.063" fill="#0f564b" d="M 224.5,20.5 C 224.083,21.1239 223.416,21.4573 222.5,21.5C 216.937,19.368 211.271,17.5347 205.5,16C 140.687,4.24296 91.5207,26.4096 58,82.5C 34.0974,135.405 39.9308,184.738 75.5,230.5C 56.5876,210.335 45.421,186.335 42,158.5C 37.9077,101.692 59.7411,58.1918 107.5,28C 145.404,8.85555 184.404,6.35555 224.5,20.5 Z"/></g>
<g><path style="opacity:0.996" fill="#010706" d="M 161.5,59.5 C 201.783,56.5512 231.616,72.5512 251,107.5C 264.475,140.839 260.142,171.506 238,199.5C 210.13,227.257 177.63,234.424 140.5,221C 108.221,204.868 91.5547,178.701 90.5,142.5C 93.8706,97.4033 117.537,69.7367 161.5,59.5 Z"/></g>
<g><path style="opacity:0.996" fill="#069687" d="M 101.5,157.5 C 100.218,147.502 100.218,137.502 101.5,127.5C 108.347,98.72 126.014,79.8866 154.5,71C 198.22,62.7839 229.054,78.9506 247,119.5C 256.105,155.858 245.605,185.025 215.5,207C 186.244,223.147 157.578,222.147 129.5,204C 119.861,195.529 112.028,185.695 106,174.5C 104.026,168.938 102.526,163.271 101.5,157.5 Z"/></g>
<g><path style="opacity:0.996" fill="#e9f9f8" d="M 190.5,118.5 C 189.938,121.546 189.271,124.546 188.5,127.5C 187.292,128.234 185.959,128.567 184.5,128.5C 183.27,126.703 182.604,124.703 182.5,122.5C 182.223,119.552 182.556,116.719 183.5,114C 188.199,112.287 190.532,113.787 190.5,118.5 Z"/></g>
<g><path style="opacity:0.996" fill="#f5fdfc" d="M 155.5,117.5 C 156.137,132.962 156.803,148.295 157.5,163.5C 158.833,163.5 160.167,163.5 161.5,163.5C 164.5,163.5 167.5,163.5 170.5,163.5C 170.167,148.152 170.501,132.819 171.5,117.5C 173.432,116.48 175.432,116.313 177.5,117C 179.476,132.927 180.143,149.093 179.5,165.5C 178.577,168.838 176.577,171.338 173.5,173C 166.842,173.5 160.175,173.666 153.5,173.5C 151.193,172.023 149.36,170.023 148,167.5C 147.167,150.823 147.334,134.157 148.5,117.5C 150.865,116.178 153.198,116.178 155.5,117.5 Z"/></g>
<g><path style="opacity:0.996" fill="#03685b" d="M 157.5,122.5 C 158.833,122.5 160.167,122.5 161.5,122.5C 161.5,136.167 161.5,149.833 161.5,163.5C 160.167,163.5 158.833,163.5 157.5,163.5C 157.5,149.833 157.5,136.167 157.5,122.5 Z"/></g>
<g><path style="opacity:0.996" fill="#166f62" d="M 190.5,118.5 C 193.702,118.537 195.368,120.203 195.5,123.5C 193.72,124.99 193.054,126.99 193.5,129.5C 193.5,130.5 193.5,131.5 193.5,132.5C 189.849,132.838 188.183,131.172 188.5,127.5C 189.271,124.546 189.938,121.546 190.5,118.5 Z"/></g>
<g><path style="opacity:0.996" fill="#e1f7f6" d="M 202.5,129.5 C 201.738,131.262 200.404,132.262 198.5,132.5C 196.589,131.925 194.922,130.925 193.5,129.5C 193.054,126.99 193.72,124.99 195.5,123.5C 200.128,122.444 202.462,124.444 202.5,129.5 Z"/></g>
<g><path style="opacity:0.996" fill="#96c6be" d="M 155.5,117.5 C 157.213,118.635 157.88,120.302 157.5,122.5C 157.5,136.167 157.5,149.833 157.5,163.5C 156.803,148.295 156.137,132.962 155.5,117.5 Z"/></g>
<g><path style="opacity:0.996" fill="#0e695d" d="M 203.5,136.5 C 202.341,134.75 200.674,133.75 198.5,133.5C 198.5,133.167 198.5,132.833 198.5,132.5C 200.404,132.262 201.738,131.262 202.5,129.5C 206.41,128.59 207.91,130.257 207,134.5C 206.184,135.823 205.017,136.489 203.5,136.5 Z"/></g>
<g><path style="opacity:0.996" fill="#eef8f7" d="M 198.5,133.5 C 200.674,133.75 202.341,134.75 203.5,136.5C 203.5,137.5 203.5,138.5 203.5,139.5C 203.667,150.172 203.5,160.839 203,171.5C 201.556,173.155 199.722,173.822 197.5,173.5C 195.983,173.489 194.816,172.823 194,171.5C 193.333,159.5 193.333,147.5 194,135.5C 195.11,133.963 196.61,133.297 198.5,133.5 Z"/></g>
<g><path style="opacity:0.996" fill="#07695c" d="M 182.5,122.5 C 182.604,124.703 183.27,126.703 184.5,128.5C 184.833,142.849 184.499,157.182 183.5,171.5C 182.296,174.415 180.296,176.581 177.5,178C 171.5,178.667 165.5,178.667 159.5,178C 157.316,176.637 155.316,175.137 153.5,173.5C 160.175,173.666 166.842,173.5 173.5,173C 176.577,171.338 178.577,168.838 179.5,165.5C 179.839,150.971 180.839,136.638 182.5,122.5 Z"/></g>
<g><path style="opacity:0.996" fill="#07594f" d="M 101.5,127.5 C 100.218,137.502 100.218,147.502 101.5,157.5C 100.046,152.577 99.3793,147.411 99.5,142C 99.3437,136.91 100.01,132.077 101.5,127.5 Z"/></g>
<g><path style="opacity:0.996" fill="#03695d" d="M 203.5,139.5 C 204.822,139.33 205.989,139.663 207,140.5C 207.667,152.5 207.667,164.5 207,176.5C 205.192,178.396 203.025,178.896 200.5,178C 199.778,176.249 198.778,174.749 197.5,173.5C 199.722,173.822 201.556,173.155 203,171.5C 203.5,160.839 203.667,150.172 203.5,139.5 Z"/></g>
<g><path style="opacity:0.035" fill="#06514a" d="M 306.5,131.5 C 306.725,141.199 306.392,150.866 305.5,160.5C 304.861,159.903 304.528,159.07 304.5,158C 305.099,149.013 305.765,140.18 306.5,131.5 Z"/></g>
<g><path style="opacity:0.012" fill="#0b4d46" d="M 303.5,171.5 C 300.978,187.43 294.978,201.763 285.5,214.5C 288.64,208.22 291.807,201.886 295,195.5C 297.852,187.38 300.685,179.38 303.5,171.5 Z"/></g>
<g><path style="opacity:0.016" fill="#09423d" d="M 285.5,214.5 C 284.66,216.853 283.326,218.853 281.5,220.5C 281.995,218.518 282.495,216.518 283,214.5C 283.77,215.598 284.603,215.598 285.5,214.5 Z"/></g>
<g><path style="opacity:0.031" fill="#104340" d="M 281.5,220.5 C 279.758,223.643 277.758,226.643 275.5,229.5C 274.475,229.103 274.308,228.437 275,227.5C 276.719,224.712 278.885,222.379 281.5,220.5 Z"/></g>
<g><path style="opacity:0.212" fill="#114e46" d="M 76.5,231.5 C 85.8716,240.534 95.8716,248.867 106.5,256.5C 100.048,253.437 94.0481,249.603 88.5,245C 83.8983,240.906 79.8983,236.406 76.5,231.5 Z"/></g>
<g><path style="opacity:0.012" fill="#11514c" d="M 273.5,231.5 C 266.71,239.962 258.71,246.962 249.5,252.5C 248.262,252.19 248.262,251.69 249.5,251C 253.344,248.578 257.01,245.911 260.5,243C 264.697,238.258 269.03,234.425 273.5,231.5 Z"/></g>
<g><path style="opacity:0.075" fill="#175f54" d="M 108.5,257.5 C 110.027,257.427 111.027,258.094 111.5,259.5C 109.973,259.573 108.973,258.906 108.5,257.5 Z"/></g>
<g><path style="opacity:0.039" fill="#125c4c" d="M 111.5,259.5 C 116.753,260.793 121.419,263.126 125.5,266.5C 120.516,264.674 115.849,262.341 111.5,259.5 Z"/></g>
<g><path style="opacity:0.224" fill="#0e5146" d="M 245.5,254.5 C 233.66,263.413 220.327,269.08 205.5,271.5C 219.434,267.406 232.767,261.739 245.5,254.5 Z"/></g>
<g><path style="opacity:0.18" fill="#125047" d="M 126.5,267.5 C 126.735,266.903 127.235,266.57 128,266.5C 138.452,269.884 148.952,272.55 159.5,274.5C 148.059,274.079 137.059,271.746 126.5,267.5 Z"/></g>
</svg>
